<svg width="669.6123535156249px" height="130.58500061035156px" xmlns="http://www.w3.org/2000/svg" viewBox="-84.80617675781247 9.707499694824222 669.6123535156249 130.58500061035156" style="background: rgba(0, 0, 0, 0);" preserveAspectRatio="xMidYMid"><defs><filter id="editing-hole" x="-100%" y="-100%" width="300%" height="300%"><feFlood flood-color="#000000" result="black"></feFlood><feMorphology operator="dilate" radius="2" in="SourceGraphic" result="erode"></feMorphology><feGaussianBlur in="erode" stdDeviation="4" result="blur"></feGaussianBlur><feOffset in="blur" dx="2" dy="2" result="offset"></feOffset><feComposite operator="atop" in="offset" in2="black" result="merge"></feComposite><feComposite operator="in" in="merge" in2="SourceGraphic" result="inner-shadow"></feComposite></filter></defs><g filter="url(#editing-hole)"><g transform="translate(11.694998741149902, 106.55000114440918)"><path d="M19.20-26.43L12.74-26.43L12.74-10.30L12.74-10.30Q12.74-7.30 13.50-5.95L13.50-5.95L13.50-5.95Q14.27-4.61 16.38-4.61L16.38-4.61L16.38-4.61Q18.50-4.61 20.48-5.50L20.48-5.50L20.48-5.50Q21.18-5.76 21.50-4.99L21.50-4.99L22.66-2.05L22.66-2.05Q22.72-1.86 22.72-1.50L22.72-1.50L22.72-1.50Q22.72-1.15 22.08-0.77L22.08-0.77L22.08-0.77Q19.01 0.77 14.78 0.77L14.78 0.77L14.78 0.77Q9.09 0.77 7.30-2.18L7.30-2.18L7.30-2.18Q6.02-4.10 5.82-5.89L5.82-5.89L5.82-5.89Q5.57-8.32 5.57-11.01L5.57-11.01L5.57-26.43L1.92-26.43L1.92-26.43Q0.96-26.43 0.96-27.39L0.96-27.39L0.96-30.72L0.96-30.72Q0.96-31.68 1.92-31.68L1.92-31.68L5.57-31.68L5.57-40.32L5.57-40.32Q5.57-41.28 6.53-41.28L6.53-41.28L11.78-41.28L11.78-41.28Q12.74-41.28 12.74-40.32L12.74-40.32L12.74-31.68L19.20-31.68L19.20-31.68Q20.16-31.68 20.16-30.72L20.16-30.72L20.16-27.39L20.16-27.39Q20.16-26.43 19.20-26.43L19.20-26.43ZM36.80-30.72L36.80-5.06L40.83-5.06L40.83-5.06Q41.79-5.06 41.79-4.10L41.79-4.10L41.79-0.96L41.79-0.96Q41.79 0 40.83 0L40.83 0L25.60 0L25.60 0Q24.64 0 24.64-0.96L24.64-0.96L24.64-4.10L24.64-4.10Q24.64-5.06 25.60-5.06L25.60-5.06L25.60-5.06Q25.60-5.06 29.63-5.06L29.63-5.06L29.63-26.43L26.18-26.43L26.18-26.43Q25.22-26.43 25.22-27.39L25.22-27.39L25.22-30.72L25.22-30.72Q25.22-31.68 26.18-31.68L26.18-31.68L35.84-31.68L35.84-31.68Q36.80-31.68 36.80-30.72L36.80-30.72ZM29.06-37.38L29.06-37.38L29.06-37.38Q27.84-38.66 27.84-40.64L27.84-40.64L27.84-40.64Q27.84-42.62 29.09-43.94L29.09-43.94L29.09-43.94Q30.34-45.25 32.42-45.25L32.42-45.25L32.42-45.25Q34.50-45.25 35.74-43.94L35.74-43.94L35.74-43.94Q36.99-42.62 36.99-40.64L36.99-40.64L36.99-40.64Q36.99-38.66 35.71-37.38L35.71-37.38L35.71-37.38Q34.43-36.10 32.35-36.10L32.35-36.10L32.35-36.10Q30.27-36.10 29.06-37.38ZM44.03-27.33L44.03-27.33L44.03-30.72L44.03-30.72Q44.03-31.68 44.99-31.68L44.99-31.68L53.70-31.68L53.70-31.68Q54.53-31.68 54.72-30.72L54.72-30.72L55.30-27.01L55.30-27.01Q58.88-32.38 65.54-32.38L65.54-32.38L65.54-32.38Q75.46-32.38 75.46-21.50L75.46-21.50L75.46-5.06L79.17-5.06L79.17-5.06Q80.13-5.06 80.13-4.10L80.13-4.10L80.13-0.96L80.13-0.96Q80.13 0 79.17 0L79.17 0L65.22 0L65.22 0Q64.26 0 64.26-0.96L64.26-0.96L64.26-4.10L64.26-4.10Q64.26-5.06 65.22-5.06L65.22-5.06L68.29-5.06L68.29-18.30L68.29-18.30Q68.29-22.34 67.26-24.19L67.26-24.19L67.26-24.19Q66.24-26.05 63.04-26.05L63.04-26.05L63.04-26.05Q59.84-26.05 57.73-24.13L57.73-24.13L57.73-24.13Q55.62-22.21 55.62-19.78L55.62-19.78L55.62-5.06L59.58-5.06L59.58-5.06Q60.54-5.06 60.54-4.10L60.54-4.10L60.54-0.96L60.54-0.96Q60.54 0 59.58 0L59.58 0L45.06 0L45.06 0Q44.10 0 44.10-0.96L44.10-0.96L44.10-4.10L44.10-4.10Q44.10-5.06 45.06-5.06L45.06-5.06L48.45-5.06L48.45-26.43L44.99-26.43L44.99-26.43Q44.03-26.43 44.03-27.33ZM91.65-30.78L91.65-30.78L99.14-7.49L105.79-26.43L102.53-26.43L102.53-26.43Q101.57-26.43 101.57-27.39L101.57-27.39L101.57-30.72L101.57-30.72Q101.57-31.68 102.53-31.68L102.53-31.68L111.87-31.68L111.87-31.68Q112.64-31.68 112.90-31.23L112.90-31.23L112.90-31.23Q113.15-30.78 113.15-30.43L113.15-30.43L113.15-30.43Q113.15-30.08 113.02-29.76L113.02-29.76L99.33 6.02L99.33 6.02Q98.37 8.45 97.70 9.76L97.70 9.76L97.70 9.76Q97.02 11.07 95.81 12.54L95.81 12.54L95.81 12.54Q93.44 15.36 88.83 15.36L88.83 15.36L88.83 15.36Q84.22 15.36 81.28 13.95L81.28 13.95L81.28 13.95Q80.77 13.70 80.77 13.31L80.77 13.31L80.77 13.31Q80.77 12.93 80.83 12.74L80.83 12.74L81.92 9.60L81.92 9.60Q82.18 8.77 83.14 9.02L83.14 9.02L83.14 9.02Q86.21 10.05 88.16 10.05L88.16 10.05L88.16 10.05Q90.11 10.05 91.17 9.06L91.17 9.06L91.17 9.06Q92.22 8.06 93.38 4.93L93.38 4.93L94.98 0.70L85.25-26.43L82.05-26.43L82.05-26.43Q81.09-26.43 81.09-27.39L81.09-27.39L81.09-30.72L81.09-30.72Q81.09-31.68 82.05-31.68L82.05-31.68L90.43-31.68L90.43-31.68Q91.39-31.68 91.65-30.78ZM129.22-13.95L129.22-13.95L117.44-13.95L117.44-13.95Q116.74-13.95 116.48-14.21L116.48-14.21L116.48-14.21Q116.22-14.46 116.22-15.17L116.22-15.17L116.22-18.94L116.22-18.94Q116.22-19.65 116.48-19.90L116.48-19.90L116.48-19.90Q116.74-20.16 117.44-20.16L117.44-20.16L129.22-20.16L129.22-20.16Q129.92-20.16 130.18-19.90L130.18-19.90L130.18-19.90Q130.43-19.65 130.43-18.94L130.43-18.94L130.43-15.17L130.43-15.17Q130.43-14.46 130.18-14.21L130.18-14.21L130.18-14.21Q129.92-13.95 129.22-13.95ZM133.95-27.33L133.95-27.33L133.95-30.72L133.95-30.72Q133.95-31.68 134.91-31.68L134.91-31.68L143.62-31.68L143.62-31.68Q144.45-31.68 144.64-30.72L144.64-30.72L145.22-27.01L145.22-27.01Q148.80-32.38 155.46-32.38L155.46-32.38L155.46-32.38Q165.38-32.38 165.38-21.50L165.38-21.50L165.38-5.06L169.09-5.06L169.09-5.06Q170.05-5.06 170.05-4.10L170.05-4.10L170.05-0.96L170.05-0.96Q170.05 0 169.09 0L169.09 0L155.14 0L155.14 0Q154.18 0 154.18-0.96L154.18-0.96L154.18-4.10L154.18-4.10Q154.18-5.06 155.14-5.06L155.14-5.06L158.21-5.06L158.21-18.30L158.21-18.30Q158.21-22.34 157.18-24.19L157.18-24.19L157.18-24.19Q156.16-26.05 152.96-26.05L152.96-26.05L152.96-26.05Q149.76-26.05 147.65-24.13L147.65-24.13L147.65-24.13Q145.54-22.21 145.54-19.78L145.54-19.78L145.54-5.06L149.50-5.06L149.50-5.06Q150.46-5.06 150.46-4.10L150.46-4.10L150.46-0.96L150.46-0.96Q150.46 0 149.50 0L149.50 0L134.98 0L134.98 0Q134.02 0 134.02-0.96L134.02-0.96L134.02-4.10L134.02-4.10Q134.02-5.06 134.98-5.06L134.98-5.06L138.37-5.06L138.37-26.43L134.91-26.43L134.91-26.43Q133.95-26.43 133.95-27.33ZM173.25-15.36L173.25-15.36L173.25-15.36Q173.25-20.16 174.72-23.68L174.72-23.68L174.72-23.68Q176.19-27.20 178.56-28.99L178.56-28.99L178.56-28.99Q183.10-32.38 188.42-32.38L188.42-32.38L188.42-32.38Q192.32-32.38 195.01-31.17L195.01-31.17L195.01-31.17Q197.70-29.95 199.20-28.35L199.20-28.35L199.20-28.35Q200.70-26.75 201.76-23.74L201.76-23.74L201.76-23.74Q202.82-20.74 202.82-16.70L202.82-16.70L202.82-16.70Q202.82-8.13 198.50-3.68L198.50-3.68L198.50-3.68Q194.18 0.77 187.46 0.77L187.46 0.77L187.46 0.77Q180.74 0.77 176.99-3.30L176.99-3.30L176.99-3.30Q173.25-7.36 173.25-15.36ZM187.97-4.48L187.97-4.48L187.97-4.48Q191.81-4.48 193.57-7.33L193.57-7.33L193.57-7.33Q195.33-10.18 195.33-15.81L195.33-15.81L195.33-15.81Q195.33-21.44 193.57-24.29L193.57-24.29L193.57-24.29Q191.81-27.14 187.84-27.14L187.84-27.14L187.84-27.14Q180.48-27.14 180.48-16.77L180.48-16.77L180.48-16.77Q180.48-4.48 187.97-4.48ZM236.74-46.78L236.74-5.06L239.49-5.06L239.49-5.06Q240.45-5.06 240.45-4.10L240.45-4.10L240.45-0.96L240.45-0.96Q240.45 0 239.49 0L239.49 0L232.26 0L232.26 0Q231.42 0 231.30-0.96L231.30-0.96L230.78-4.74L230.78-4.74Q227.52 0.77 220.35 0.77L220.35 0.77L220.35 0.77Q214.08 0.77 210.69-3.17L210.69-3.17L210.69-3.17Q207.30-7.10 207.30-15.39L207.30-15.39L207.30-15.39Q207.30-23.68 211.23-28.03L211.23-28.03L211.23-28.03Q215.17-32.38 221.38-32.38L221.38-32.38L221.38-32.38Q224.19-32.38 226.37-31.33L226.37-31.33L226.37-31.33Q228.54-30.27 229.57-28.80L229.57-28.80L229.57-42.43L226.18-42.43L226.18-42.43Q225.22-42.43 225.22-43.39L225.22-43.39L225.22-46.78L225.22-46.78Q225.22-47.74 226.18-47.74L226.18-47.74L235.78-47.74L235.78-47.74Q236.74-47.74 236.74-46.78L236.74-46.78ZM229.57-12.03L229.57-12.03L229.57-23.30L229.57-23.30Q228.74-24.58 226.66-25.66L226.66-25.66L226.66-25.66Q224.58-26.75 222.46-26.75L222.46-26.75L222.46-26.75Q214.53-26.75 214.53-16L214.53-16L214.53-16Q214.53-7.74 218.11-5.70L218.11-5.70L218.11-5.70Q219.65-4.80 222.34-4.80L222.34-4.80L222.34-4.80Q225.02-4.80 227.30-6.78L227.30-6.78L227.30-6.78Q229.57-8.77 229.57-12.03ZM259.33 0.77L259.33 0.77L259.33 0.77Q251.71 0.77 248.16-3.68L248.16-3.68L248.16-3.68Q244.61-8.13 244.61-15.46L244.61-15.46L244.61-15.46Q244.61-22.78 248.38-27.58L248.38-27.58L248.38-27.58Q252.16-32.38 259.26-32.38L259.26-32.38L259.26-32.38Q262.78-32.38 265.31-31.07L265.31-31.07L265.31-31.07Q267.84-29.76 269.18-27.52L269.18-27.52L269.18-27.52Q271.74-23.17 271.74-17.47L271.74-17.47L271.74-17.47Q271.74-14.78 271.49-14.53L271.49-14.53L271.49-14.53Q271.23-14.27 270.53-14.27L270.53-14.27L251.71-14.27L251.71-14.27Q252.03-9.66 253.98-7.14L253.98-7.14L253.98-7.14Q255.94-4.61 260.74-4.61L260.74-4.61L260.74-4.61Q264.26-4.61 267.97-6.27L267.97-6.27L267.97-6.27Q268.86-6.72 269.25-5.76L269.25-5.76L270.46-2.82L270.46-2.82Q270.78-2.05 269.89-1.54L269.89-1.54L269.89-1.54Q265.66 0.77 259.33 0.77ZM251.71-19.01L251.71-19.01L265.02-19.01L265.02-19.01Q265.15-27.01 258.75-27.01L258.75-27.01L258.75-27.01Q254.98-27.01 253.41-24.61L253.41-24.61L253.41-24.61Q251.84-22.21 251.71-19.01ZM288.58-13.95L288.58-13.95L276.80-13.95L276.80-13.95Q276.10-13.95 275.84-14.21L275.84-14.21L275.84-14.21Q275.58-14.46 275.58-15.17L275.58-15.17L275.58-18.94L275.58-18.94Q275.58-19.65 275.84-19.90L275.84-19.90L275.84-19.90Q276.10-20.16 276.80-20.16L276.80-20.16L288.58-20.16L288.58-20.16Q289.28-20.16 289.54-19.90L289.54-19.90L289.54-19.90Q289.79-19.65 289.79-18.94L289.79-18.94L289.79-15.17L289.79-15.17Q289.79-14.46 289.54-14.21L289.54-14.21L289.54-14.21Q289.28-13.95 288.58-13.95ZM304.90-46.78L304.90-46.78L304.90-5.06L308.93-5.06L308.93-5.06Q309.89-5.06 309.89-4.10L309.89-4.10L309.89-0.96L309.89-0.96Q309.89 0 308.93 0L308.93 0L293.70 0L293.70 0Q292.74 0 292.74-0.96L292.74-0.96L292.74-4.10L292.74-4.10Q292.74-5.06 293.70-5.06L293.70-5.06L297.73-5.06L297.73-42.50L294.27-42.50L294.27-42.50Q293.31-42.50 293.31-43.46L293.31-43.46L293.31-46.78L293.31-46.78Q293.31-47.74 294.27-47.74L294.27-47.74L303.94-47.74L303.94-47.74Q304.90-47.74 304.90-46.78ZM312.77-15.36L312.77-15.36L312.77-15.36Q312.77-20.16 314.24-23.68L314.24-23.68L314.24-23.68Q315.71-27.20 318.08-28.99L318.08-28.99L318.08-28.99Q322.62-32.38 327.94-32.38L327.94-32.38L327.94-32.38Q331.84-32.38 334.53-31.17L334.53-31.17L334.53-31.17Q337.22-29.95 338.72-28.35L338.72-28.35L338.72-28.35Q340.22-26.75 341.28-23.74L341.28-23.74L341.28-23.74Q342.34-20.74 342.34-16.70L342.34-16.70L342.34-16.70Q342.34-8.13 338.02-3.68L338.02-3.68L338.02-3.68Q333.70 0.77 326.98 0.77L326.98 0.77L326.98 0.77Q320.26 0.77 316.51-3.30L316.51-3.30L316.51-3.30Q312.77-7.36 312.77-15.36ZM327.49-4.48L327.49-4.48L327.49-4.48Q331.33-4.48 333.09-7.33L333.09-7.33L333.09-7.33Q334.85-10.18 334.85-15.81L334.85-15.81L334.85-15.81Q334.85-21.44 333.09-24.29L333.09-24.29L333.09-24.29Q331.33-27.14 327.36-27.14L327.36-27.14L327.36-27.14Q320.00-27.14 320.00-16.77L320.00-16.77L320.00-16.77Q320.00-4.48 327.49-4.48ZM379.46-26.43L375.94-26.43L375.94-3.71L375.94-3.71Q375.94 0.38 375.62 3.90L375.62 3.90L375.62 3.90Q375.10 9.34 371.62 12.35L371.62 12.35L371.62 12.35Q368.13 15.36 361.73 15.36L361.73 15.36L361.73 15.36Q355.33 15.36 350.98 13.44L350.98 13.44L350.98 13.44Q350.21 13.12 350.46 12.16L350.46 12.16L351.62 8.77L351.62 8.77Q351.87 7.87 352.90 8.26L352.90 8.26L352.90 8.26Q356.80 9.86 360.80 9.86L360.80 9.86L360.80 9.86Q364.80 9.86 366.78 7.94L366.78 7.94L366.78 7.94Q368.77 6.02 368.77 1.15L368.77 1.15L368.77-3.84L368.77-3.84Q365.95 0.77 359.68 0.77L359.68 0.77L359.68 0.77Q353.41 0.77 350.11-3.26L350.11-3.26L350.11-3.26Q346.82-7.30 346.82-15.52L346.82-15.52L346.82-15.52Q346.82-23.74 350.69-28.06L350.69-28.06L350.69-28.06Q354.56-32.38 360.42-32.38L360.42-32.38L360.42-32.38Q366.27-32.38 369.86-28.22L369.86-28.22L370.50-30.72L370.50-30.72Q370.82-31.68 371.65-31.68L371.65-31.68L379.46-31.68L379.46-31.68Q380.42-31.68 380.42-30.72L380.42-30.72L380.42-27.39L380.42-27.39Q380.42-26.43 379.46-26.43L379.46-26.43ZM368.77-11.97L368.77-11.97L368.77-23.36L368.77-23.36Q368.51-23.74 367.97-24.32L367.97-24.32L367.97-24.32Q367.42-24.90 365.60-25.82L365.60-25.82L365.60-25.82Q363.78-26.75 361.66-26.75L361.66-26.75L361.66-26.75Q358.27-26.75 356.16-24.22L356.16-24.22L356.16-24.22Q354.05-21.70 354.05-16.13L354.05-16.13L354.05-16.13Q354.05-10.56 355.58-7.65L355.58-7.65L355.58-7.65Q357.12-4.74 361.54-4.74L361.54-4.74L361.54-4.74Q364.35-4.74 366.56-6.72L366.56-6.72L366.56-6.72Q368.77-8.70 368.77-11.97ZM415.94-26.43L412.42-26.43L412.42-3.71L412.42-3.71Q412.42 0.38 412.10 3.90L412.10 3.90L412.10 3.90Q411.58 9.34 408.10 12.35L408.10 12.35L408.10 12.35Q404.61 15.36 398.21 15.36L398.21 15.36L398.21 15.36Q391.81 15.36 387.46 13.44L387.46 13.44L387.46 13.44Q386.69 13.12 386.94 12.16L386.94 12.16L388.10 8.77L388.10 8.77Q388.35 7.87 389.38 8.26L389.38 8.26L389.38 8.26Q393.28 9.86 397.28 9.86L397.28 9.86L397.28 9.86Q401.28 9.86 403.26 7.94L403.26 7.94L403.26 7.94Q405.25 6.02 405.25 1.15L405.25 1.15L405.25-3.84L405.25-3.84Q402.43 0.77 396.16 0.77L396.16 0.77L396.16 0.77Q389.89 0.77 386.59-3.26L386.59-3.26L386.59-3.26Q383.30-7.30 383.30-15.52L383.30-15.52L383.30-15.52Q383.30-23.74 387.17-28.06L387.17-28.06L387.17-28.06Q391.04-32.38 396.90-32.38L396.90-32.38L396.90-32.38Q402.75-32.38 406.34-28.22L406.34-28.22L406.98-30.72L406.98-30.72Q407.30-31.68 408.13-31.68L408.13-31.68L415.94-31.68L415.94-31.68Q416.90-31.68 416.90-30.72L416.90-30.72L416.90-27.39L416.90-27.39Q416.90-26.43 415.94-26.43L415.94-26.43ZM405.25-11.97L405.25-11.97L405.25-23.36L405.25-23.36Q404.99-23.74 404.45-24.32L404.45-24.32L404.45-24.32Q403.90-24.90 402.08-25.82L402.08-25.82L402.08-25.82Q400.26-26.75 398.14-26.75L398.14-26.75L398.14-26.75Q394.75-26.75 392.64-24.22L392.64-24.22L392.64-24.22Q390.53-21.70 390.53-16.13L390.53-16.13L390.53-16.13Q390.53-10.56 392.06-7.65L392.06-7.65L392.06-7.65Q393.60-4.74 398.02-4.74L398.02-4.74L398.02-4.74Q400.83-4.74 403.04-6.72L403.04-6.72L403.04-6.72Q405.25-8.70 405.25-11.97ZM434.50 0.77L434.50 0.77L434.50 0.77Q426.88 0.77 423.33-3.68L423.33-3.68L423.33-3.68Q419.78-8.13 419.78-15.46L419.78-15.46L419.78-15.46Q419.78-22.78 423.55-27.58L423.55-27.58L423.55-27.58Q427.33-32.38 434.43-32.38L434.43-32.38L434.43-32.38Q437.95-32.38 440.48-31.07L440.48-31.07L440.48-31.07Q443.01-29.76 444.35-27.52L444.35-27.52L444.35-27.52Q446.91-23.17 446.91-17.47L446.91-17.47L446.91-17.47Q446.91-14.78 446.66-14.53L446.66-14.53L446.66-14.53Q446.40-14.27 445.70-14.27L445.70-14.27L426.88-14.27L426.88-14.27Q427.20-9.66 429.15-7.14L429.15-7.14L429.15-7.14Q431.10-4.61 435.90-4.61L435.90-4.61L435.90-4.61Q439.42-4.61 443.14-6.27L443.14-6.27L443.14-6.27Q444.03-6.72 444.42-5.76L444.42-5.76L445.63-2.82L445.63-2.82Q445.95-2.05 445.06-1.54L445.06-1.54L445.06-1.54Q440.83 0.77 434.50 0.77ZM426.88-19.01L426.88-19.01L440.19-19.01L440.19-19.01Q440.32-27.01 433.92-27.01L433.92-27.01L433.92-27.01Q430.14-27.01 428.58-24.61L428.58-24.61L428.58-24.61Q427.01-22.21 426.88-19.01ZM461.63-26.18L461.63-26.18Q462.72-28.74 465.15-30.56L465.15-30.56L465.15-30.56Q467.58-32.38 470.46-32.38L470.46-32.38L470.46-32.38Q473.34-32.38 474.88-31.87L474.88-31.87L474.88-31.87Q475.65-31.62 475.65-30.72L475.65-30.72L475.65-22.08L475.65-22.08Q475.65-21.12 474.69-21.12L474.69-21.12L470.53-21.12L470.53-21.12Q469.57-21.12 469.63-22.08L469.63-22.08L469.89-25.79L469.89-25.79Q469.57-25.86 468.80-25.86L468.80-25.86L468.80-25.86Q465.86-25.86 463.94-23.46L463.94-23.46L463.94-23.46Q462.02-21.06 462.02-17.02L462.02-17.02L462.02-5.06L469.06-5.06L469.06-5.06Q470.02-5.06 470.02-4.10L470.02-4.10L470.02-0.96L470.02-0.96Q470.02 0 469.06 0L469.06 0L451.46 0L451.46 0Q450.50 0 450.50-0.96L450.50-0.96L450.50-4.10L450.50-4.10Q450.50-5.06 451.46-5.06L451.46-5.06L454.85-5.06L454.85-26.43L451.39-26.43L451.39-26.43Q450.43-26.43 450.43-27.39L450.43-27.39L450.43-30.72L450.43-30.72Q450.43-31.68 451.39-31.68L451.39-31.68L459.84-31.68L459.84-31.68Q460.74-31.68 460.93-30.72L460.93-30.72L461.63-26.18Z" fill="#c04040"></path></g></g><style>text {
  font-size: 64px;
  font-family: Arial Black;
  dominant-baseline: central;
  text-anchor: middle;
}</style></svg>