<svg width="731.2798583984375px" height="160.37747802734376px" xmlns="http://www.w3.org/2000/svg" viewBox="-115.63992919921873 -5.188739013671878 731.2798583984375 160.37747802734376" style="background: rgba(0, 0, 0, 0);" preserveAspectRatio="xMidYMid"><defs>
  <filter id="editing-scratch" x="-100%" y="-100%" width="300%" height="300%">
    <!-- COLOR -->
    <feFlood flood-color="#ddd" flood-opacity="0.75" result="COLOR-blu"></feFlood>
    <feFlood flood-color="#666" flood-opacity="0.4" result="COLOR-red"></feFlood>
    <!-- COLOR END -->

    <!-- Texture -->
    <feTurbulence baseFrequency=".05" type="fractalNoise" numOctaves="3" seed="0" result="Texture_10"></feTurbulence>
    <feColorMatrix type="matrix" values="0 0 0 0 0,
    0 0 0 0 0,
    0 0 0 0 0,
    0 0 0 -2.1 1.1" in="Texture_10" result="Texture_20"></feColorMatrix>

    <feColorMatrix result="Texture_30" type="matrix" values="0 0 0 0 0,
    0 0 0 0 0,
    0 0 0 0 0,
    0 0 0 -1.7 1.8" in="Texture_10"></feColorMatrix>
    <!-- Texture -->

    <!-- FILL -->
    <feOffset dx="-3" dy="4" in="SourceAlpha" result="FILL_10"></feOffset>
    <feDisplacementMap scale="17" in="FILL_10" in2="Texture_10" result="FILL_20"></feDisplacementMap>
    <feComposite operator="in" in="Texture_30" in2="FILL_20" result="FILL_40"></feComposite>
    <feComposite operator="in" in="COLOR-blu" in2="FILL_40" result="FILL_50"></feComposite>
    <!-- FILL END-->

    <!-- OUTLINE -->
    <feMorphology operator="dilate" radius="3" in="SourceGraphic" result="OUTLINE_10"></feMorphology>
    <feComposite operator="out" in="OUTLINE_10" in2="SourceGraphic" result="OUTLINE_20"></feComposite>
    <feDisplacementMap scale="7" in="OUTLINE_20" in2="Texture_10" result="OUTLINE_30"></feDisplacementMap>
    <feComposite operator="arithmetic" k2="-1" k3="1" in="Texture_20" in2="OUTLINE_30" result="OUTLINE_40"></feComposite>
    <!-- OUTLINE END-->

    <!-- BEVEL OUTLINE -->
    <feConvolveMatrix order="8,8" divisor="1" kernelMatrix="1 0 0 0 0 0 0 0 0 1 0 0 0 0 0 0 0 0 1 0 0 0 0 0 0 0 0 1 0 0 0 0 0 0 0 0 1 0 0 0 0 0 0 0 0 1 0 0 0 0 0 0 0 0 1 0 0 0 0 0 0 0 0 1 " in="SourceGraphic" result="BEVEL_10"></feConvolveMatrix>
    <feMorphology operator="dilate" radius="2" in="BEVEL_10" result="BEVEL_20"></feMorphology>
    <feComposite operator="out" in="BEVEL_20" in2="BEVEL_10" result="BEVEL_30"></feComposite>
    <feDisplacementMap scale="7" in="BEVEL_30" in2="Texture_10" result="BEVEL_40"></feDisplacementMap>
    <feComposite operator="arithmetic" k2="-1" k3="1" in="Texture_20" in2="BEVEL_40" result="BEVEL_50"></feComposite>
    <feOffset dx="-7" dy="-7" in="BEVEL_50" result="BEVEL_60"></feOffset>
    <feComposite operator="out" in="BEVEL_60" in2="OUTLINE_10" result="BEVEL_70"></feComposite>
    <!-- BEVEL OUTLINE END -->

    <!-- BEVEL FILL -->
    <feOffset dx="-9" dy="-9" in="BEVEL_10" result="BEVEL-FILL_10"></feOffset>
    <feComposite operator="out" in="BEVEL-FILL_10" in2="OUTLINE_10" result="BEVEL-FILL_20"></feComposite>
    <feDisplacementMap scale="17" in="BEVEL-FILL_20" in2="Texture_10" result="BEVEL-FILL_30"></feDisplacementMap>
    <feComposite operator="in" in="COLOR-red" in2="BEVEL-FILL_30" result="BEVEL-FILL_50"></feComposite> <!-- -->
    <!-- BEVEL FILL END-->

    <feMerge result="merge2">
     <feMergeNode in="BEVEL-FILL_50"></feMergeNode>
     <feMergeNode in="BEVEL_70"></feMergeNode>
     <feMergeNode in="FILL_50"></feMergeNode>
      <feMergeNode in="OUTLINE_40"></feMergeNode>
    </feMerge>
  </filter>
</defs>
<g filter="url(#editing-scratch)"><g transform="translate(-12.84500002861023, 107.34500122070312)"><path d="M26.56-28.28L26.56-28.28L26.56-28.28Q25.75-28.28 24.92-28.09L24.92-28.09L24.92-28.09Q24.09-27.91 23.30-27.45L23.30-27.45L23.30-27.45Q22.50-27 21.73-26.25L21.73-26.25L21.73-26.25Q20.97-25.50 20.31-24.38L20.31-24.38L20.31-24.38Q19.63-23.22 19.27-21.50L19.27-21.50L19.27-21.50Q18.91-19.78 18.91-17.97L18.91-17.97L18.91-17.97Q18.91-15.91 19.28-14.39L19.28-14.39L19.28-14.39Q19.66-12.88 20.30-11.91L20.30-11.91L20.30-11.91Q20.94-10.94 21.73-10.47L21.73-10.47L21.73-10.47Q22.53-10 23.38-10L23.38-10L23.38-10Q24.06-10 24.92-10.63L24.92-10.63L24.92-10.63Q25.78-11.25 26.66-12.28L26.66-12.28L26.66-12.28Q27.53-13.31 28.39-14.64L28.39-14.64L28.39-14.64Q29.25-15.97 29.97-17.34L29.97-17.34L29.97-17.34Q30.69-18.72 31.23-20.06L31.23-20.06L31.23-20.06Q31.78-21.41 32.03-22.50L32.03-22.50L32.03-27.19L32.03-27.19Q31.25-27.56 29.78-27.92L29.78-27.92L29.78-27.92Q28.31-28.28 26.56-28.28ZM50.16-21.88L50.16-21.88L50.16-21.88Q50.16-17.97 49.19-14.95L49.19-14.95L49.19-14.95Q48.22-11.94 46.66-9.86L46.66-9.86L46.66-9.86Q45.09-7.78 43.11-6.70L43.11-6.70L43.11-6.70Q41.13-5.63 39.06-5.63L39.06-5.63L39.06-5.63Q37.63-5.63 36.47-6.41L36.47-6.41L36.47-6.41Q35.31-7.19 34.47-8.50L34.47-8.50L34.47-8.50Q33.63-9.81 33.13-11.58L33.13-11.58L33.13-11.58Q32.63-13.34 32.50-15.31L32.50-15.31L32.50-15.31Q31.88-13.84 30.83-12.17L30.83-12.17L30.83-12.17Q29.78-10.50 28.50-9.06L28.50-9.06L28.50-9.06Q27.22-7.63 25.78-6.67L25.78-6.67L25.78-6.67Q24.34-5.72 22.97-5.72L22.97-5.72L22.97-5.72Q21.41-5.72 19.84-6.38L19.84-6.38L19.84-6.38Q18.28-7.03 17.03-8.38L17.03-8.38L17.03-8.38Q15.78-9.72 15-11.75L15-11.75L15-11.75Q14.22-13.78 14.22-16.56L14.22-16.56L14.22-16.56Q14.22-19.47 14.84-21.84L14.84-21.84L14.84-21.84Q15.47-24.22 16.56-26.09L16.56-26.09L16.56-26.09Q18.50-29.28 21.08-30.89L21.08-30.89L21.08-30.89Q23.66-32.50 27.50-32.50L27.50-32.50L27.50-32.50Q28.44-32.50 29.63-32.36L29.63-32.36L29.63-32.36Q30.81-32.22 32.05-31.97L32.05-31.97L32.05-31.97Q33.28-31.72 34.48-31.38L34.48-31.38L34.48-31.38Q35.69-31.03 36.72-30.63L36.72-30.63L36.72-19.69L36.72-19.69Q36.72-17.09 36.97-15.23L36.97-15.23L36.97-15.23Q37.22-13.38 37.67-12.19L37.67-12.19L37.67-12.19Q38.13-11 38.72-10.42L38.72-10.42L38.72-10.42Q39.31-9.84 40-9.84L40-9.84L40-9.84Q40.78-9.84 41.80-10.53L41.80-10.53L41.80-10.53Q42.81-11.22 43.69-12.59L43.69-12.59L43.69-12.59Q44.56-13.97 45.17-16.06L45.17-16.06L45.17-16.06Q45.78-18.16 45.78-20.94L45.78-20.94L45.78-20.94Q45.78-24.81 44.61-28.23L44.61-28.23L44.61-28.23Q43.44-31.66 41.09-34.20L41.09-34.20L41.09-34.20Q38.75-36.75 35.27-38.22L35.27-38.22L35.27-38.22Q31.78-39.69 27.19-39.69L27.19-39.69L27.19-39.69Q24.63-39.69 22.17-39.02L22.17-39.02L22.17-39.02Q19.72-38.34 17.53-37.06L17.53-37.06L17.53-37.06Q15.34-35.78 13.50-33.95L13.50-33.95L13.50-33.95Q11.66-32.13 10.33-29.81L10.33-29.81L10.33-29.81Q9-27.50 8.25-24.75L8.25-24.75L8.25-24.75Q7.50-22 7.50-18.91L7.50-18.91L7.50-18.91Q7.50-13.84 9.05-9.80L9.05-9.80L9.05-9.80Q10.59-5.75 13.27-2.92L13.27-2.92L13.27-2.92Q15.94-0.09 19.53 1.44L19.53 1.44L19.53 1.44Q23.13 2.97 27.19 2.97L27.19 2.97L27.19 2.97Q29.38 2.97 31.55 2.34L31.55 2.34L31.55 2.34Q33.72 1.72 35.78 0.31L35.78 0.31L39.06 3.69L39.06 3.69Q37.88 4.50 36.41 5.17L36.41 5.17L36.41 5.17Q34.94 5.84 33.31 6.33L33.31 6.33L33.31 6.33Q31.69 6.81 30 7.08L30 7.08L30 7.08Q28.31 7.34 26.72 7.34L26.72 7.34L26.72 7.34Q23.66 7.34 20.72 6.61L20.72 6.61L20.72 6.61Q17.78 5.88 15.14 4.44L15.14 4.44L15.14 4.44Q12.50 3 10.27 0.86L10.27 0.86L10.27 0.86Q8.03-1.28 6.41-4.09L6.41-4.09L6.41-4.09Q4.78-6.91 3.88-10.38L3.88-10.38L3.88-10.38Q2.97-13.84 2.97-17.97L2.97-17.97L2.97-17.97Q2.97-22.28 3.89-25.88L3.89-25.88L3.89-25.88Q4.81-29.47 6.45-32.34L6.45-32.34L6.45-32.34Q8.09-35.22 10.38-37.39L10.38-37.39L10.38-37.39Q12.66-39.56 15.38-41.02L15.38-41.02L15.38-41.02Q18.09-42.47 21.17-43.19L21.17-43.19L21.17-43.19Q24.25-43.91 27.50-43.91L27.50-43.91L27.50-43.91Q32.50-43.91 36.67-42.34L36.67-42.34L36.67-42.34Q40.84-40.78 43.84-37.89L43.84-37.89L43.84-37.89Q46.84-35 48.50-30.94L48.50-30.94L48.50-30.94Q50.16-26.88 50.16-21.88ZM81.47-8.13L82.09-2.66L82.09-2.66Q80.91-1.75 79.73-1.11L79.73-1.11L79.73-1.11Q78.56-0.47 77.28-0.05L77.28-0.05L77.28-0.05Q76 0.38 74.53 0.58L74.53 0.58L74.53 0.58Q73.06 0.78 71.31 0.78L71.31 0.78L71.31 0.78Q68.16 0.78 65.41-0.33L65.41-0.33L65.41-0.33Q62.66-1.44 60.59-3.53L60.59-3.53L60.59-3.53Q58.53-5.63 57.34-8.59L57.34-8.59L57.34-8.59Q56.16-11.56 56.16-15.31L56.16-15.31L56.16-15.31Q56.16-18.84 57.30-21.97L57.30-21.97L57.30-21.97Q58.44-25.09 60.55-27.44L60.55-27.44L60.55-27.44Q62.66-29.78 65.67-31.14L65.67-31.14L65.67-31.14Q68.69-32.50 72.41-32.50L72.41-32.50L72.41-32.50Q75.53-32.50 77.80-31.77L77.80-31.77L77.80-31.77Q80.06-31.03 81.78-29.84L81.78-29.84L80.69-24.22L80.69-24.22Q78.56-25.78 76.47-26.56L76.47-26.56L76.47-26.56Q74.38-27.34 71.94-27.34L71.94-27.34L71.94-27.34Q69.84-27.34 68.05-26.55L68.05-26.55L68.05-26.55Q66.25-25.75 64.92-24.25L64.92-24.25L64.92-24.25Q63.59-22.75 62.84-20.56L62.84-20.56L62.84-20.56Q62.09-18.38 62.09-15.63L62.09-15.63L62.09-15.63Q62.09-13.09 62.78-11.03L62.78-11.03L62.78-11.03Q63.47-8.97 64.75-7.48L64.75-7.48L64.75-7.48Q66.03-6 67.84-5.19L67.84-5.19L67.84-5.19Q69.66-4.38 71.94-4.38L71.94-4.38L71.94-4.38Q74.78-4.38 77.09-5.34L77.09-5.34L77.09-5.34Q79.41-6.31 81.47-8.13L81.47-8.13ZM93.81-15.78L93.81-15.78L93.81-15.78Q93.81-13.06 94.47-10.91L94.47-10.91L94.47-10.91Q95.13-8.75 96.33-7.27L96.33-7.27L96.33-7.27Q97.53-5.78 99.19-5L99.19-5L99.19-5Q100.84-4.22 102.88-4.22L102.88-4.22L102.88-4.22Q104.75-4.22 106.41-5L106.41-5L106.41-5Q108.06-5.78 109.30-7.27L109.30-7.27L109.30-7.27Q110.53-8.75 111.23-10.91L111.23-10.91L111.23-10.91Q111.94-13.06 111.94-15.78L111.94-15.78L111.94-15.78Q111.94-18.53 111.28-20.70L111.28-20.70L111.28-20.70Q110.63-22.88 109.42-24.39L109.42-24.39L109.42-24.39Q108.22-25.91 106.55-26.70L106.55-26.70L106.55-26.70Q104.88-27.50 102.88-27.50L102.88-27.50L102.88-27.50Q100.97-27.50 99.31-26.70L99.31-26.70L99.31-26.70Q97.66-25.91 96.44-24.39L96.44-24.39L96.44-24.39Q95.22-22.88 94.52-20.70L94.52-20.70L94.52-20.70Q93.81-18.53 93.81-15.78ZM88.03-15.78L88.03-15.78L88.03-15.78Q88.03-19.81 89.25-22.92L89.25-22.92L89.25-22.92Q90.47-26.03 92.53-28.17L92.53-28.17L92.53-28.17Q94.59-30.31 97.34-31.41L97.34-31.41L97.34-31.41Q100.09-32.50 103.19-32.50L103.19-32.50L103.19-32.50Q106.41-32.50 109.08-31.41L109.08-31.41L109.08-31.41Q111.75-30.31 113.67-28.17L113.67-28.17L113.67-28.17Q115.59-26.03 116.66-22.92L116.66-22.92L116.66-22.92Q117.72-19.81 117.72-15.78L117.72-15.78L117.72-15.78Q117.72-11.75 116.50-8.66L116.50-8.66L116.50-8.66Q115.28-5.56 113.22-3.47L113.22-3.47L113.22-3.47Q111.16-1.38 108.41-0.30L108.41-0.30L108.41-0.30Q105.66 0.78 102.56 0.78L102.56 0.78L102.56 0.78Q99.34 0.78 96.67-0.30L96.67-0.30L96.67-0.30Q94-1.38 92.08-3.47L92.08-3.47L92.08-3.47Q90.16-5.56 89.09-8.66L89.09-8.66L89.09-8.66Q88.03-11.75 88.03-15.78ZM147.09-12.50L147.09-24.84L147.09-24.84Q145.94-25.47 144.94-25.91L144.94-25.91L144.94-25.91Q143.94-26.34 142.97-26.63L142.97-26.63L142.97-26.63Q142-26.91 141-27.05L141-27.05L141-27.05Q140-27.19 138.81-27.19L138.81-27.19L138.81-27.19Q137.03-27.19 135.41-26.38L135.41-26.38L135.41-26.38Q133.78-25.56 132.52-24.03L132.52-24.03L132.52-24.03Q131.25-22.50 130.50-20.30L130.50-20.30L130.50-20.30Q129.75-18.09 129.75-15.31L129.75-15.31L129.75-15.31Q129.75-9.84 131.61-7.03L131.61-7.03L131.61-7.03Q133.47-4.22 137.56-4.22L137.56-4.22L137.56-4.22Q139-4.22 140.42-4.94L140.42-4.94L140.42-4.94Q141.84-5.66 143.11-6.81L143.11-6.81L143.11-6.81Q144.38-7.97 145.41-9.45L145.41-9.45L145.41-9.45Q146.44-10.94 147.09-12.50L147.09-12.50ZM152.88-50L152.88-16.56L152.88-16.56Q152.88-10.66 153.55-6.64L153.55-6.64L153.55-6.64Q154.22-2.63 155.22 0L155.22 0L149.59 0L149.59 0Q149.25-0.81 148.77-2.42L148.77-2.42L148.77-2.42Q148.28-4.03 147.88-5.78L147.88-5.78L147.88-5.78Q145.63-2.59 142.78-0.91L142.78-0.91L142.78-0.91Q139.94 0.78 136.47 0.78L136.47 0.78L136.47 0.78Q133.59 0.78 131.30-0.30L131.30-0.30L131.30-0.30Q129-1.38 127.36-3.36L127.36-3.36L127.36-3.36Q125.72-5.34 124.84-8.14L124.84-8.14L124.84-8.14Q123.97-10.94 123.97-14.38L123.97-14.38L123.97-14.38Q123.97-18.53 125.11-21.88L125.11-21.88L125.11-21.88Q126.25-25.22 128.25-27.58L128.25-27.58L128.25-27.58Q130.25-29.94 132.95-31.22L132.95-31.22L132.95-31.22Q135.66-32.50 138.81-32.50L138.81-32.50L138.81-32.50Q139.81-32.50 140.89-32.28L140.89-32.28L140.89-32.28Q141.97-32.06 143.05-31.69L143.05-31.69L143.05-31.69Q144.13-31.31 145.16-30.83L145.16-30.83L145.16-30.83Q146.19-30.34 147.09-29.84L147.09-29.84L147.09-38.59L147.09-38.59Q147.09-42.38 146.92-45.20L146.92-45.20L146.92-45.20Q146.75-48.03 146.31-50L146.31-50L152.88-50ZM188.78-15.16L166.63-15.16L166.63-15.16Q166.72-12.41 167.48-10.38L167.48-10.38L167.48-10.38Q168.25-8.34 169.58-7.02L169.58-7.02L169.58-7.02Q170.91-5.69 172.70-5.03L172.70-5.03L172.70-5.03Q174.50-4.38 176.63-4.38L176.63-4.38L176.63-4.38Q179.66-4.38 182.56-5.06L182.56-5.06L182.56-5.06Q185.47-5.75 188.34-7.50L188.34-7.50L188.97-2.34L188.97-2.34Q187.31-1.50 185.72-0.91L185.72-0.91L185.72-0.91Q184.13-0.31 182.53 0.06L182.53 0.06L182.53 0.06Q180.94 0.44 179.30 0.61L179.30 0.61L179.30 0.61Q177.66 0.78 175.84 0.78L175.84 0.78L175.84 0.78Q172.84 0.78 170.13-0.27L170.13-0.27L170.13-0.27Q167.41-1.31 165.34-3.36L165.34-3.36L165.34-3.36Q163.28-5.41 162.06-8.44L162.06-8.44L162.06-8.44Q160.84-11.47 160.84-15.47L160.84-15.47L160.84-15.47Q160.84-19.34 161.89-22.48L161.89-22.48L161.89-22.48Q162.94-25.63 164.88-27.86L164.88-27.86L164.88-27.86Q166.81-30.09 169.59-31.30L169.59-31.30L169.59-31.30Q172.38-32.50 175.84-32.50L175.84-32.50L175.84-32.50Q178.41-32.50 180.38-31.89L180.38-31.89L180.38-31.89Q182.34-31.28 183.78-30.20L183.78-30.20L183.78-30.20Q185.22-29.13 186.19-27.69L186.19-27.69L186.19-27.69Q187.16-26.25 187.73-24.59L187.73-24.59L187.73-24.59Q188.31-22.94 188.56-21.14L188.56-21.14L188.56-21.14Q188.81-19.34 188.81-17.59L188.81-17.59L188.81-16.38L188.81-16.38Q188.81-15.59 188.78-15.16L188.78-15.16ZM175.38-27.81L175.38-27.81L175.38-27.81Q171.94-27.81 169.75-25.80L169.75-25.80L169.75-25.80Q167.56-23.78 166.88-19.53L166.88-19.53L183.19-19.53L183.19-19.53Q183.19-21.53 182.61-23.08L182.61-23.08L182.61-23.08Q182.03-24.63 180.98-25.69L180.98-25.69L180.98-25.69Q179.94-26.75 178.50-27.28L178.50-27.28L178.50-27.28Q177.06-27.81 175.38-27.81ZM196.16-50L202.41-50L202.41-25.78L202.41-25.78Q203.50-27.22 204.78-28.44L204.78-28.44L204.78-28.44Q206.06-29.66 207.55-30.56L207.55-30.56L207.55-30.56Q209.03-31.47 210.75-31.98L210.75-31.98L210.75-31.98Q212.47-32.50 214.44-32.50L214.44-32.50L214.44-32.50Q216.81-32.50 218.78-31.34L218.78-31.34L218.78-31.34Q220.75-30.19 222.19-28.11L222.19-28.11L222.19-28.11Q223.63-26.03 224.42-23.16L224.42-23.16L224.42-23.16Q225.22-20.28 225.22-16.88L225.22-16.88L225.22-16.88Q225.22-12.84 224.14-9.59L224.14-9.59L224.14-9.59Q223.06-6.34 221.09-4.03L221.09-4.03L221.09-4.03Q219.13-1.72 216.33-0.47L216.33-0.47L216.33-0.47Q213.53 0.78 210.06 0.78L210.06 0.78L210.06 0.78Q208.16 0.78 206.38 0.52L206.38 0.52L206.38 0.52Q204.59 0.25 202.92-0.17L202.92-0.17L202.92-0.17Q201.25-0.59 199.69-1.08L199.69-1.08L199.69-1.08Q198.13-1.56 196.63-2.03L196.63-2.03L196.63-39L196.63-39Q196.63-41 196.58-43.02L196.58-43.02L196.58-43.02Q196.53-45.03 196.44-46.86L196.44-46.86L196.44-46.86Q196.34-48.69 196.16-50L196.16-50ZM202.41-18.28L202.41-5.78L202.41-5.78Q203.56-5.31 204.52-4.98L204.52-4.98L204.52-4.98Q205.47-4.66 206.38-4.45L206.38-4.45L206.38-4.45Q207.28-4.25 208.17-4.16L208.17-4.16L208.17-4.16Q209.06-4.06 210.06-4.06L210.06-4.06L210.06-4.06Q212.13-4.06 213.88-4.91L213.88-4.91L213.88-4.91Q215.63-5.75 216.89-7.28L216.89-7.28L216.89-7.28Q218.16-8.81 218.88-10.98L218.88-10.98L218.88-10.98Q219.59-13.16 219.59-15.78L219.59-15.78L219.59-15.78Q219.59-18.38 219.13-20.47L219.13-20.47L219.13-20.47Q218.66-22.56 217.77-24.02L217.77-24.02L217.77-24.02Q216.88-25.47 215.56-26.25L215.56-26.25L215.56-26.25Q214.25-27.03 212.56-27.03L212.56-27.03L212.56-27.03Q211.09-27.03 209.63-26.39L209.63-26.39L209.63-26.39Q208.16-25.75 206.83-24.59L206.83-24.59L206.83-24.59Q205.50-23.44 204.34-21.83L204.34-21.83L204.34-21.83Q203.19-20.22 202.41-18.28L202.41-18.28ZM233.03-42.03L233.03-42.03L233.03-42.03Q233.03-42.91 233.31-43.67L233.31-43.67L233.31-43.67Q233.59-44.44 234.11-45.02L234.11-45.02L234.11-45.02Q234.63-45.59 235.34-45.92L235.34-45.92L235.34-45.92Q236.06-46.25 236.94-46.25L236.94-46.25L236.94-46.25Q237.81-46.25 238.56-45.92L238.56-45.92L238.56-45.92Q239.31-45.59 239.84-45.02L239.84-45.02L239.84-45.02Q240.38-44.44 240.69-43.67L240.69-43.67L240.69-43.67Q241-42.91 241-42.03L241-42.03L241-42.03Q241-41.16 240.69-40.39L240.69-40.39L240.69-40.39Q240.38-39.63 239.84-39.05L239.84-39.05L239.84-39.05Q239.31-38.47 238.56-38.14L238.56-38.14L238.56-38.14Q237.81-37.81 236.94-37.81L236.94-37.81L236.94-37.81Q236.06-37.81 235.34-38.14L235.34-38.14L235.34-38.14Q234.63-38.47 234.11-39.05L234.11-39.05L234.11-39.05Q233.59-39.63 233.31-40.39L233.31-40.39L233.31-40.39Q233.03-41.16 233.03-42.03ZM239.91-31.88L239.91-14.84L239.91-14.84Q239.91-13.34 239.95-11.30L239.95-11.30L239.95-11.30Q240-9.25 240.08-7.16L240.08-7.16L240.08-7.16Q240.16-5.06 240.27-3.16L240.27-3.16L240.27-3.16Q240.38-1.25 240.53 0L240.53 0L234.13 0L234.13-16.56L234.13-16.56Q234.13-18.84 234.11-21.06L234.11-21.06L234.11-21.06Q234.09-23.28 234.05-25.27L234.05-25.27L234.05-25.27Q234-27.25 233.91-28.95L233.91-28.95L233.91-28.95Q233.81-30.66 233.66-31.88L233.66-31.88L239.91-31.88ZM246.78-26.56L246.78-31.09L253.03-31.09L253.03-41.25L258.81-41.25L258.81-31.09L268.97-31.09L268.97-26.56L258.81-26.56L258.81-12.19L258.81-12.19Q258.81-9.78 259.05-8.25L259.05-8.25L259.05-8.25Q259.28-6.72 259.77-5.86L259.77-5.86L259.77-5.86Q260.25-5 261-4.69L261-4.69L261-4.69Q261.75-4.38 262.81-4.38L262.81-4.38L262.81-4.38Q264.16-4.38 265.84-4.97L265.84-4.97L265.84-4.97Q267.53-5.56 269.59-6.72L269.59-6.72L269.59-1.72L269.59-1.72Q267.44-0.31 265.47 0.23L265.47 0.23L265.47 0.23Q263.50 0.78 261.84 0.78L261.84 0.78L261.84 0.78Q260 0.78 258.41 0.36L258.41 0.36L258.41 0.36Q256.81-0.06 255.61-1.13L255.61-1.13L255.61-1.13Q254.41-2.19 253.72-3.95L253.72-3.95L253.72-3.95Q253.03-5.72 253.03-8.44L253.03-8.44L253.03-26.56L246.78-26.56ZM302.84-15.16L280.69-15.16L280.69-15.16Q280.78-12.41 281.55-10.38L281.55-10.38L281.55-10.38Q282.31-8.34 283.64-7.02L283.64-7.02L283.64-7.02Q284.97-5.69 286.77-5.03L286.77-5.03L286.77-5.03Q288.56-4.38 290.69-4.38L290.69-4.38L290.69-4.38Q293.72-4.38 296.63-5.06L296.63-5.06L296.63-5.06Q299.53-5.75 302.41-7.50L302.41-7.50L303.03-2.34L303.03-2.34Q301.38-1.50 299.78-0.91L299.78-0.91L299.78-0.91Q298.19-0.31 296.59 0.06L296.59 0.06L296.59 0.06Q295 0.44 293.36 0.61L293.36 0.61L293.36 0.61Q291.72 0.78 289.91 0.78L289.91 0.78L289.91 0.78Q286.91 0.78 284.19-0.27L284.19-0.27L284.19-0.27Q281.47-1.31 279.41-3.36L279.41-3.36L279.41-3.36Q277.34-5.41 276.13-8.44L276.13-8.44L276.13-8.44Q274.91-11.47 274.91-15.47L274.91-15.47L274.91-15.47Q274.91-19.34 275.95-22.48L275.95-22.48L275.95-22.48Q277-25.63 278.94-27.86L278.94-27.86L278.94-27.86Q280.88-30.09 283.66-31.30L283.66-31.30L283.66-31.30Q286.44-32.50 289.91-32.50L289.91-32.50L289.91-32.50Q292.47-32.50 294.44-31.89L294.44-31.89L294.44-31.89Q296.41-31.28 297.84-30.20L297.84-30.20L297.84-30.20Q299.28-29.13 300.25-27.69L300.25-27.69L300.25-27.69Q301.22-26.25 301.80-24.59L301.80-24.59L301.80-24.59Q302.38-22.94 302.63-21.14L302.63-21.14L302.63-21.14Q302.88-19.34 302.88-17.59L302.88-17.59L302.88-16.38L302.88-16.38Q302.88-15.59 302.84-15.16L302.84-15.16ZM289.44-27.81L289.44-27.81L289.44-27.81Q286-27.81 283.81-25.80L283.81-25.80L283.81-25.80Q281.63-23.78 280.94-19.53L280.94-19.53L297.25-19.53L297.25-19.53Q297.25-21.53 296.67-23.08L296.67-23.08L296.67-23.08Q296.09-24.63 295.05-25.69L295.05-25.69L295.05-25.69Q294-26.75 292.56-27.28L292.56-27.28L292.56-27.28Q291.13-27.81 289.44-27.81ZM332.41-50L337.09-50L311.16 7.66L306.47 7.66L332.41-50ZM349.13-50L349.13-14.84L349.13-14.84Q349.13-13.34 349.17-11.31L349.17-11.31L349.17-11.31Q349.22-9.28 349.30-7.19L349.30-7.19L349.30-7.19Q349.38-5.09 349.48-3.19L349.48-3.19L349.48-3.19Q349.59-1.28 349.75 0L349.75 0L343.34 0L343.34-35.31L343.34-35.31Q343.34-39.88 343.19-43.58L343.19-43.58L343.19-43.58Q343.03-47.28 342.72-50L342.72-50L349.13-50ZM363.81-15.78L363.81-15.78L363.81-15.78Q363.81-13.06 364.47-10.91L364.47-10.91L364.47-10.91Q365.13-8.75 366.33-7.27L366.33-7.27L366.33-7.27Q367.53-5.78 369.19-5L369.19-5L369.19-5Q370.84-4.22 372.88-4.22L372.88-4.22L372.88-4.22Q374.75-4.22 376.41-5L376.41-5L376.41-5Q378.06-5.78 379.30-7.27L379.30-7.27L379.30-7.27Q380.53-8.75 381.23-10.91L381.23-10.91L381.23-10.91Q381.94-13.06 381.94-15.78L381.94-15.78L381.94-15.78Q381.94-18.53 381.28-20.70L381.28-20.70L381.28-20.70Q380.63-22.88 379.42-24.39L379.42-24.39L379.42-24.39Q378.22-25.91 376.55-26.70L376.55-26.70L376.55-26.70Q374.88-27.50 372.88-27.50L372.88-27.50L372.88-27.50Q370.97-27.50 369.31-26.70L369.31-26.70L369.31-26.70Q367.66-25.91 366.44-24.39L366.44-24.39L366.44-24.39Q365.22-22.88 364.52-20.70L364.52-20.70L364.52-20.70Q363.81-18.53 363.81-15.78ZM358.03-15.78L358.03-15.78L358.03-15.78Q358.03-19.81 359.25-22.92L359.25-22.92L359.25-22.92Q360.47-26.03 362.53-28.17L362.53-28.17L362.53-28.17Q364.59-30.31 367.34-31.41L367.34-31.41L367.34-31.41Q370.09-32.50 373.19-32.50L373.19-32.50L373.19-32.50Q376.41-32.50 379.08-31.41L379.08-31.41L379.08-31.41Q381.75-30.31 383.67-28.17L383.67-28.17L383.67-28.17Q385.59-26.03 386.66-22.92L386.66-22.92L386.66-22.92Q387.72-19.81 387.72-15.78L387.72-15.78L387.72-15.78Q387.72-11.75 386.50-8.66L386.50-8.66L386.50-8.66Q385.28-5.56 383.22-3.47L383.22-3.47L383.22-3.47Q381.16-1.38 378.41-0.30L378.41-0.30L378.41-0.30Q375.66 0.78 372.56 0.78L372.56 0.78L372.56 0.78Q369.34 0.78 366.67-0.30L366.67-0.30L366.67-0.30Q364-1.38 362.08-3.47L362.08-3.47L362.08-3.47Q360.16-5.56 359.09-8.66L359.09-8.66L359.09-8.66Q358.03-11.75 358.03-15.78ZM415.84-12.34L415.84-25.94L415.84-25.94Q415.09-26.22 414.25-26.45L414.25-26.45L414.25-26.45Q413.41-26.69 412.53-26.84L412.53-26.84L412.53-26.84Q411.66-27 410.83-27.09L410.83-27.09L410.83-27.09Q410-27.19 409.28-27.19L409.28-27.19L409.28-27.19Q406.72-27.19 404.91-26.14L404.91-26.14L404.91-26.14Q403.09-25.09 401.95-23.39L401.95-23.39L401.95-23.39Q400.81-21.69 400.28-19.53L400.28-19.53L400.28-19.53Q399.75-17.38 399.75-15.16L399.75-15.16L399.75-15.16Q399.75-12.25 400.20-10.33L400.20-10.33L400.20-10.33Q400.66-8.41 401.45-7.27L401.45-7.27L401.45-7.27Q402.25-6.13 403.33-5.64L403.33-5.64L403.33-5.64Q404.41-5.16 405.69-5.16L405.69-5.16L405.69-5.16Q406.88-5.16 408.22-5.64L408.22-5.64L408.22-5.64Q409.56-6.13 410.92-7.03L410.92-7.03L410.92-7.03Q412.28-7.94 413.55-9.28L413.55-9.28L413.55-9.28Q414.81-10.63 415.84-12.34L415.84-12.34ZM421.63-30.16L421.63-0.78L421.63-0.78Q421.63 3.34 420.42 6.28L420.42 6.28L420.42 6.28Q419.22 9.22 417.27 11.08L417.27 11.08L417.27 11.08Q415.31 12.94 412.81 13.81L412.81 13.81L412.81 13.81Q410.31 14.69 407.72 14.69L407.72 14.69L407.72 14.69Q404.72 14.69 401.77 13.66L401.77 13.66L401.77 13.66Q398.81 12.63 396.31 10.94L396.31 10.94L398.34 6.09L398.34 6.09Q400.56 7.69 402.81 8.69L402.81 8.69L402.81 8.69Q405.06 9.69 407.41 9.69L407.41 9.69L407.41 9.69Q408.63 9.69 410.09 9.25L410.09 9.25L410.09 9.25Q411.56 8.81 412.84 7.73L412.84 7.73L412.84 7.73Q414.13 6.66 414.98 4.84L414.98 4.84L414.98 4.84Q415.84 3.03 415.84 0.31L415.84 0.31L415.84-5.47L415.84-5.47Q414.63-3.94 413.27-2.86L413.27-2.86L413.27-2.86Q411.91-1.78 410.52-1.11L410.52-1.11L410.52-1.11Q409.13-0.44 407.73-0.14L407.73-0.14L407.73-0.14Q406.34 0.16 405.06 0.16L405.06 0.16L405.06 0.16Q402.91 0.16 400.91-0.59L400.91-0.59L400.91-0.59Q398.91-1.34 397.36-2.98L397.36-2.98L397.36-2.98Q395.81-4.63 394.89-7.25L394.89-7.25L394.89-7.25Q393.97-9.88 393.97-13.59L393.97-13.59L393.97-13.59Q393.97-17.19 394.91-20.59L394.91-20.59L394.91-20.59Q395.84-24 397.81-26.64L397.81-26.64L397.81-26.64Q399.78-29.28 402.86-30.89L402.86-30.89L402.86-30.89Q405.94-32.50 410.22-32.50L410.22-32.50L410.22-32.50Q411.63-32.50 413.11-32.30L413.11-32.30L413.11-32.30Q414.59-32.09 416.06-31.75L416.06-31.75L416.06-31.75Q417.53-31.41 418.94-30.98L418.94-30.98L418.94-30.98Q420.34-30.56 421.63-30.16L421.63-30.16ZM451-12.34L451-25.94L451-25.94Q450.25-26.22 449.41-26.45L449.41-26.45L449.41-26.45Q448.56-26.69 447.69-26.84L447.69-26.84L447.69-26.84Q446.81-27 445.98-27.09L445.98-27.09L445.98-27.09Q445.16-27.19 444.44-27.19L444.44-27.19L444.44-27.19Q441.88-27.19 440.06-26.14L440.06-26.14L440.06-26.14Q438.25-25.09 437.11-23.39L437.11-23.39L437.11-23.39Q435.97-21.69 435.44-19.53L435.44-19.53L435.44-19.53Q434.91-17.38 434.91-15.16L434.91-15.16L434.91-15.16Q434.91-12.25 435.36-10.33L435.36-10.33L435.36-10.33Q435.81-8.41 436.61-7.27L436.61-7.27L436.61-7.27Q437.41-6.13 438.48-5.64L438.48-5.64L438.48-5.64Q439.56-5.16 440.84-5.16L440.84-5.16L440.84-5.16Q442.03-5.16 443.38-5.64L443.38-5.64L443.38-5.64Q444.72-6.13 446.08-7.03L446.08-7.03L446.08-7.03Q447.44-7.94 448.70-9.28L448.70-9.28L448.70-9.28Q449.97-10.63 451-12.34L451-12.34ZM456.78-30.16L456.78-0.78L456.78-0.78Q456.78 3.34 455.58 6.28L455.58 6.28L455.58 6.28Q454.38 9.22 452.42 11.08L452.42 11.08L452.42 11.08Q450.47 12.94 447.97 13.81L447.97 13.81L447.97 13.81Q445.47 14.69 442.88 14.69L442.88 14.69L442.88 14.69Q439.88 14.69 436.92 13.66L436.92 13.66L436.92 13.66Q433.97 12.63 431.47 10.94L431.47 10.94L433.50 6.09L433.50 6.09Q435.72 7.69 437.97 8.69L437.97 8.69L437.97 8.69Q440.22 9.69 442.56 9.69L442.56 9.69L442.56 9.69Q443.78 9.69 445.25 9.25L445.25 9.25L445.25 9.25Q446.72 8.81 448 7.73L448 7.73L448 7.73Q449.28 6.66 450.14 4.84L450.14 4.84L450.14 4.84Q451 3.03 451 0.31L451 0.31L451-5.47L451-5.47Q449.78-3.94 448.42-2.86L448.42-2.86L448.42-2.86Q447.06-1.78 445.67-1.11L445.67-1.11L445.67-1.11Q444.28-0.44 442.89-0.14L442.89-0.14L442.89-0.14Q441.50 0.16 440.22 0.16L440.22 0.16L440.22 0.16Q438.06 0.16 436.06-0.59L436.06-0.59L436.06-0.59Q434.06-1.34 432.52-2.98L432.52-2.98L432.52-2.98Q430.97-4.63 430.05-7.25L430.05-7.25L430.05-7.25Q429.13-9.88 429.13-13.59L429.13-13.59L429.13-13.59Q429.13-17.19 430.06-20.59L430.06-20.59L430.06-20.59Q431-24 432.97-26.64L432.97-26.64L432.97-26.64Q434.94-29.28 438.02-30.89L438.02-30.89L438.02-30.89Q441.09-32.50 445.38-32.50L445.38-32.50L445.38-32.50Q446.78-32.50 448.27-32.30L448.27-32.30L448.27-32.30Q449.75-32.09 451.22-31.75L451.22-31.75L451.22-31.75Q452.69-31.41 454.09-30.98L454.09-30.98L454.09-30.98Q455.50-30.56 456.78-30.16L456.78-30.16ZM491.91-15.16L469.75-15.16L469.75-15.16Q469.84-12.41 470.61-10.38L470.61-10.38L470.61-10.38Q471.38-8.34 472.70-7.02L472.70-7.02L472.70-7.02Q474.03-5.69 475.83-5.03L475.83-5.03L475.83-5.03Q477.63-4.38 479.75-4.38L479.75-4.38L479.75-4.38Q482.78-4.38 485.69-5.06L485.69-5.06L485.69-5.06Q488.59-5.75 491.47-7.50L491.47-7.50L492.09-2.34L492.09-2.34Q490.44-1.50 488.84-0.91L488.84-0.91L488.84-0.91Q487.25-0.31 485.66 0.06L485.66 0.06L485.66 0.06Q484.06 0.44 482.42 0.61L482.42 0.61L482.42 0.61Q480.78 0.78 478.97 0.78L478.97 0.78L478.97 0.78Q475.97 0.78 473.25-0.27L473.25-0.27L473.25-0.27Q470.53-1.31 468.47-3.36L468.47-3.36L468.47-3.36Q466.41-5.41 465.19-8.44L465.19-8.44L465.19-8.44Q463.97-11.47 463.97-15.47L463.97-15.47L463.97-15.47Q463.97-19.34 465.02-22.48L465.02-22.48L465.02-22.48Q466.06-25.63 468-27.86L468-27.86L468-27.86Q469.94-30.09 472.72-31.30L472.72-31.30L472.72-31.30Q475.50-32.50 478.97-32.50L478.97-32.50L478.97-32.50Q481.53-32.50 483.50-31.89L483.50-31.89L483.50-31.89Q485.47-31.28 486.91-30.20L486.91-30.20L486.91-30.20Q488.34-29.13 489.31-27.69L489.31-27.69L489.31-27.69Q490.28-26.25 490.86-24.59L490.86-24.59L490.86-24.59Q491.44-22.94 491.69-21.14L491.69-21.14L491.69-21.14Q491.94-19.34 491.94-17.59L491.94-17.59L491.94-16.38L491.94-16.38Q491.94-15.59 491.91-15.16L491.91-15.16ZM478.50-27.81L478.50-27.81L478.50-27.81Q475.06-27.81 472.88-25.80L472.88-25.80L472.88-25.80Q470.69-23.78 470-19.53L470-19.53L486.31-19.53L486.31-19.53Q486.31-21.53 485.73-23.08L485.73-23.08L485.73-23.08Q485.16-24.63 484.11-25.69L484.11-25.69L484.11-25.69Q483.06-26.75 481.63-27.28L481.63-27.28L481.63-27.28Q480.19-27.81 478.50-27.81ZM505.84 0L500.06 0L500.06-19.22L500.06-19.22Q500.06-23.84 499.55-27.05L499.55-27.05L499.55-27.05Q499.03-30.25 498.50-31.88L498.50-31.88L504.13-31.88L504.13-31.88Q504.31-31.38 504.50-30.58L504.50-30.58L504.50-30.58Q504.69-29.78 504.84-28.91L504.84-28.91L504.84-28.91Q505-28.03 505.13-27.19L505.13-27.19L505.38-25.78L505.38-25.78Q506.50-27.41 507.83-28.66L507.83-28.66L507.83-28.66Q509.16-29.91 510.52-30.77L510.52-30.77L510.52-30.77Q511.88-31.63 513.17-32.06L513.17-32.06L513.17-32.06Q514.47-32.50 515.53-32.50L515.53-32.50L515.53-32.50Q517.50-32.50 518.86-31.64L518.86-31.64L518.86-31.64Q520.22-30.78 521.08-29.33L521.08-29.33L521.08-29.33Q521.94-27.88 522.33-25.98L522.33-25.98L522.33-25.98Q522.72-24.09 522.72-22.03L522.72-22.03L517.72-20.94L517.72-20.94Q517.66-22.19 517.42-23.25L517.42-23.25L517.42-23.25Q517.19-24.31 516.77-25.09L516.77-25.09L516.77-25.09Q516.34-25.88 515.70-26.30L515.70-26.30L515.70-26.30Q515.06-26.72 514.13-26.72L514.13-26.72L514.13-26.72Q513.13-26.72 511.91-25.97L511.91-25.97L511.91-25.97Q510.69-25.22 509.52-24.02L509.52-24.02L509.52-24.02Q508.34-22.81 507.34-21.27L507.34-21.27L507.34-21.27Q506.34-19.72 505.84-18.13L505.84-18.13L505.84 0Z" fill="#000"></path></g></g><style>text {
  font-size: 64px;
  font-family: Arial Black;
  dominant-baseline: central;
  text-anchor: middle;
}</style></svg>