<svg width="814.9624267578125px" height="130.58500061035156px" xmlns="http://www.w3.org/2000/svg" viewBox="-157.48121337890626 9.707499694824222 814.9624267578125 130.58500061035156" style="background: rgba(0, 0, 0, 0);" preserveAspectRatio="xMidYMid"><defs><filter id="editing-hole" x="-100%" y="-100%" width="300%" height="300%"><feFlood flood-color="#000000" result="black"></feFlood><feMorphology operator="dilate" radius="2" in="SourceGraphic" result="erode"></feMorphology><feGaussianBlur in="erode" stdDeviation="4" result="blur"></feGaussianBlur><feOffset in="blur" dx="2" dy="2" result="offset"></feOffset><feComposite operator="atop" in="offset" in2="black" result="merge"></feComposite><feComposite operator="in" in="merge" in2="SourceGraphic" result="inner-shadow"></feComposite></filter></defs><g filter="url(#editing-hole)"><g transform="translate(-42.44999146461487, 99.25500106811523)"><path d="M16.96 0.77L16.96 0.77L16.96 0.77Q9.34 0.77 5.79-3.68L5.79-3.68L5.79-3.68Q2.24-8.13 2.24-15.46L2.24-15.46L2.24-15.46Q2.24-22.78 6.02-27.58L6.02-27.58L6.02-27.58Q9.79-32.38 16.90-32.38L16.90-32.38L16.90-32.38Q20.42-32.38 22.94-31.07L22.94-31.07L22.94-31.07Q25.47-29.76 26.82-27.52L26.82-27.52L26.82-27.52Q29.38-23.17 29.38-17.47L29.38-17.47L29.38-17.47Q29.38-14.78 29.12-14.53L29.12-14.53L29.12-14.53Q28.86-14.27 28.16-14.27L28.16-14.27L9.34-14.27L9.34-14.27Q9.66-9.66 11.62-7.14L11.62-7.14L11.62-7.14Q13.57-4.61 18.37-4.61L18.37-4.61L18.37-4.61Q21.89-4.61 25.60-6.27L25.60-6.27L25.60-6.27Q26.50-6.72 26.88-5.76L26.88-5.76L28.10-2.82L28.10-2.82Q28.42-2.05 27.52-1.54L27.52-1.54L27.52-1.54Q23.30 0.77 16.96 0.77ZM9.34-19.01L9.34-19.01L22.66-19.01L22.66-19.01Q22.78-27.01 16.38-27.01L16.38-27.01L16.38-27.01Q12.61-27.01 11.04-24.61L11.04-24.61L11.04-24.61Q9.47-22.21 9.34-19.01ZM34.24-22.53L34.24-22.53Q34.24-26.75 37.50-29.57L37.50-29.57L37.50-29.57Q40.77-32.38 45.76-32.38L45.76-32.38L45.76-32.38Q50.75-32.38 54.40-31.23L54.40-31.23L54.40-31.23Q55.30-30.98 55.30-30.08L55.30-30.08L55.30-23.30L55.30-23.30Q55.30-22.34 54.34-22.34L54.34-22.34L50.62-22.34L50.62-22.34Q49.60-22.34 49.79-23.30L49.79-23.30L50.11-26.56L50.11-26.56Q48.19-27.58 45.89-27.58L45.89-27.58L45.89-27.58Q40.77-27.58 40.77-24L40.77-24L40.77-24Q40.77-22.14 42.43-21.06L42.43-21.06L42.43-21.06Q44.10-19.97 46.46-19.30L46.46-19.30L46.46-19.30Q48.83-18.62 51.23-17.76L51.23-17.76L51.23-17.76Q53.63-16.90 55.30-14.82L55.30-14.82L55.30-14.82Q56.96-12.74 56.96-9.54L56.96-9.54L56.96-9.54Q56.96-4.67 53.57-1.95L53.57-1.95L53.57-1.95Q50.18 0.77 44.03 0.77L44.03 0.77L44.03 0.77Q39.74 0.77 35.01-0.51L35.01-0.51L35.01-0.51Q34.18-0.77 34.18-1.73L34.18-1.73L34.18-8.51L34.18-8.51Q34.18-9.47 35.14-9.47L35.14-9.47L38.85-9.47L38.85-9.47Q39.81-9.47 39.74-8.51L39.74-8.51L39.55-5.18L39.55-5.18Q41.28-3.90 44.48-3.90L44.48-3.90L44.48-3.90Q50.18-3.90 50.18-7.94L50.18-7.94L50.18-7.94Q50.18-9.98 48.54-11.17L48.54-11.17L48.54-11.17Q46.91-12.35 44.58-12.99L44.58-12.99L44.58-12.99Q42.24-13.63 39.87-14.43L39.87-14.43L39.87-14.43Q37.50-15.23 35.87-17.25L35.87-17.25L35.87-17.25Q34.24-19.26 34.24-22.53L34.24-22.53ZM60.48-27.33L60.48-27.33L60.48-30.72L60.48-30.72Q60.48-31.68 61.44-31.68L61.44-31.68L70.14-31.68L70.14-31.68Q70.98-31.68 71.17-30.72L71.17-30.72L71.74-27.01L71.74-27.01Q75.33-32.38 81.98-32.38L81.98-32.38L81.98-32.38Q91.90-32.38 91.90-21.50L91.90-21.50L91.90-5.06L95.62-5.06L95.62-5.06Q96.58-5.06 96.58-4.10L96.58-4.10L96.58-0.96L96.58-0.96Q96.58 0 95.62 0L95.62 0L81.66 0L81.66 0Q80.70 0 80.70-0.96L80.70-0.96L80.70-4.10L80.70-4.10Q80.70-5.06 81.66-5.06L81.66-5.06L84.74-5.06L84.74-18.30L84.74-18.30Q84.74-22.34 83.71-24.19L83.71-24.19L83.71-24.19Q82.69-26.05 79.49-26.05L79.49-26.05L79.49-26.05Q76.29-26.05 74.18-24.13L74.18-24.13L74.18-24.13Q72.06-22.21 72.06-19.78L72.06-19.78L72.06-5.06L76.03-5.06L76.03-5.06Q76.99-5.06 76.99-4.10L76.99-4.10L76.99-0.96L76.99-0.96Q76.99 0 76.03 0L76.03 0L61.50 0L61.50 0Q60.54 0 60.54-0.96L60.54-0.96L60.54-4.10L60.54-4.10Q60.54-5.06 61.50-5.06L61.50-5.06L64.90-5.06L64.90-26.43L61.44-26.43L61.44-26.43Q60.48-26.43 60.48-27.33ZM114.50 0.77L114.50 0.77L114.50 0.77Q106.88 0.77 103.33-3.68L103.33-3.68L103.33-3.68Q99.78-8.13 99.78-15.46L99.78-15.46L99.78-15.46Q99.78-22.78 103.55-27.58L103.55-27.58L103.55-27.58Q107.33-32.38 114.43-32.38L114.43-32.38L114.43-32.38Q117.95-32.38 120.48-31.07L120.48-31.07L120.48-31.07Q123.01-29.76 124.35-27.52L124.35-27.52L124.35-27.52Q126.91-23.17 126.91-17.47L126.91-17.47L126.91-17.47Q126.91-14.78 126.66-14.53L126.66-14.53L126.66-14.53Q126.40-14.27 125.70-14.27L125.70-14.27L106.88-14.27L106.88-14.27Q107.20-9.66 109.15-7.14L109.15-7.14L109.15-7.14Q111.10-4.61 115.90-4.61L115.90-4.61L115.90-4.61Q119.42-4.61 123.14-6.27L123.14-6.27L123.14-6.27Q124.03-6.72 124.42-5.76L124.42-5.76L125.63-2.82L125.63-2.82Q125.95-2.05 125.06-1.54L125.06-1.54L125.06-1.54Q120.83 0.77 114.50 0.77ZM106.88-19.01L106.88-19.01L120.19-19.01L120.19-19.01Q120.32-27.01 113.92-27.01L113.92-27.01L113.92-27.01Q110.14-27.01 108.58-24.61L108.58-24.61L108.58-24.61Q107.01-22.21 106.88-19.01ZM161.47-30.72L161.47-30.72L161.47-27.39L161.47-27.39Q161.47-26.43 160.51-26.43L160.51-26.43L156.67-26.43L149.50-16.83L156.74-5.06L161.15-5.06L161.15-5.06Q162.11-5.06 162.11-4.10L162.11-4.10L162.11-0.96L162.11-0.96Q162.11 0 161.15 0L161.15 0L152.77 0L152.77 0Q151.87 0 151.30-0.83L151.30-0.83L145.02-11.46L140.35-5.06L143.87-5.06L143.87-5.06Q144.83-5.06 144.83-4.10L144.83-4.10L144.83-0.96L144.83-0.96Q144.83 0 143.87 0L143.87 0L130.62 0L130.62 0Q129.66 0 129.66-0.96L129.66-0.96L129.66-4.10L129.66-4.10Q129.66-5.06 130.62-5.06L130.62-5.06L133.95-5.06L142.08-15.87L135.68-26.43L131.58-26.43L131.58-26.43Q130.62-26.43 130.62-27.39L130.62-27.39L130.62-30.72L130.62-30.72Q130.62-31.68 131.58-31.68L131.58-31.68L139.58-31.68L139.58-31.68Q140.54-31.68 140.99-30.85L140.99-30.85L146.62-20.93L150.72-26.43L148.35-26.43L148.35-26.43Q147.39-26.43 147.39-27.39L147.39-27.39L147.39-30.72L147.39-30.72Q147.39-31.68 148.35-31.68L148.35-31.68L160.51-31.68L160.51-31.68Q161.47-31.68 161.47-30.72ZM182.78-26.43L176.32-26.43L176.32-10.30L176.32-10.30Q176.32-7.30 177.09-5.95L177.09-5.95L177.09-5.95Q177.86-4.61 179.97-4.61L179.97-4.61L179.97-4.61Q182.08-4.61 184.06-5.50L184.06-5.50L184.06-5.50Q184.77-5.76 185.09-4.99L185.09-4.99L186.24-2.05L186.24-2.05Q186.30-1.86 186.30-1.50L186.30-1.50L186.30-1.50Q186.30-1.15 185.66-0.77L185.66-0.77L185.66-0.77Q182.59 0.77 178.37 0.77L178.37 0.77L178.37 0.77Q172.67 0.77 170.88-2.18L170.88-2.18L170.88-2.18Q169.60-4.10 169.41-5.89L169.41-5.89L169.41-5.89Q169.15-8.32 169.15-11.01L169.15-11.01L169.15-26.43L165.50-26.43L165.50-26.43Q164.54-26.43 164.54-27.39L164.54-27.39L164.54-30.72L164.54-30.72Q164.54-31.68 165.50-31.68L165.50-31.68L169.15-31.68L169.15-40.32L169.15-40.32Q169.15-41.28 170.11-41.28L170.11-41.28L175.36-41.28L175.36-41.28Q176.32-41.28 176.32-40.32L176.32-40.32L176.32-31.68L182.78-31.68L182.78-31.68Q183.74-31.68 183.74-30.72L183.74-30.72L183.74-27.39L183.74-27.39Q183.74-26.43 182.78-26.43L182.78-26.43ZM200.19-13.95L200.19-13.95L188.42-13.95L188.42-13.95Q187.71-13.95 187.46-14.21L187.46-14.21L187.46-14.21Q187.20-14.46 187.20-15.17L187.20-15.17L187.20-18.94L187.20-18.94Q187.20-19.65 187.46-19.90L187.46-19.90L187.46-19.90Q187.71-20.16 188.42-20.16L188.42-20.16L200.19-20.16L200.19-20.16Q200.90-20.16 201.15-19.90L201.15-19.90L201.15-19.90Q201.41-19.65 201.41-18.94L201.41-18.94L201.41-15.17L201.41-15.17Q201.41-14.46 201.15-14.21L201.15-14.21L201.15-14.21Q200.90-13.95 200.19-13.95ZM213.89-30.72L213.89-30.72L219.71-7.87L226.05-30.78L226.05-30.78Q226.30-31.68 227.26-31.68L227.26-31.68L232.38-31.68L232.38-31.68Q233.34-31.68 233.60-30.78L233.60-30.78L240.13-7.74L245.82-26.43L242.75-26.43L242.75-26.43Q241.79-26.43 241.79-27.39L241.79-27.39L241.79-30.72L241.79-30.72Q241.79-31.68 242.75-31.68L242.75-31.68L250.94-31.68L250.94-31.68Q251.71-31.68 252-31.26L252-31.26L252-31.26Q252.29-30.85 252.29-30.53L252.29-30.53L252.29-30.53Q252.29-30.21 252.22-29.95L252.22-29.95L243.39-0.90L243.39-0.90Q243.14 0 242.18 0L242.18 0L236.42 0L236.42 0Q235.46 0 235.20-0.96L235.20-0.96L229.12-23.55L222.78-0.90L222.78-0.90Q222.53 0 221.57 0L221.57 0L215.81 0L215.81 0Q214.85 0 214.59-0.90L214.59-0.90L207.62-26.43L204.29-26.43L204.29-26.43Q203.33-26.43 203.33-27.39L203.33-27.39L203.33-30.72L203.33-30.72Q203.33-31.68 204.29-31.68L204.29-31.68L212.67-31.68L212.67-31.68Q213.63-31.68 213.89-30.72ZM270.27 0.77L270.27 0.77L270.27 0.77Q262.66 0.77 259.10-3.68L259.10-3.68L259.10-3.68Q255.55-8.13 255.55-15.46L255.55-15.46L255.55-15.46Q255.55-22.78 259.33-27.58L259.33-27.58L259.33-27.58Q263.10-32.38 270.21-32.38L270.21-32.38L270.21-32.38Q273.73-32.38 276.26-31.07L276.26-31.07L276.26-31.07Q278.78-29.76 280.13-27.52L280.13-27.52L280.13-27.52Q282.69-23.17 282.69-17.47L282.69-17.47L282.69-17.47Q282.69-14.78 282.43-14.53L282.43-14.53L282.43-14.53Q282.18-14.27 281.47-14.27L281.47-14.27L262.66-14.27L262.66-14.27Q262.98-9.66 264.93-7.14L264.93-7.14L264.93-7.14Q266.88-4.61 271.68-4.61L271.68-4.61L271.68-4.61Q275.20-4.61 278.91-6.27L278.91-6.27L278.91-6.27Q279.81-6.72 280.19-5.76L280.19-5.76L281.41-2.82L281.41-2.82Q281.73-2.05 280.83-1.54L280.83-1.54L280.83-1.54Q276.61 0.77 270.27 0.77ZM262.66-19.01L262.66-19.01L275.97-19.01L275.97-19.01Q276.10-27.01 269.70-27.01L269.70-27.01L269.70-27.01Q265.92-27.01 264.35-24.61L264.35-24.61L264.35-24.61Q262.78-22.21 262.66-19.01ZM286.91-5.06L290.30-5.06L290.30-42.43L286.85-42.43L286.85-42.43Q285.89-42.43 285.89-43.39L285.89-43.39L285.89-46.78L285.89-46.78Q285.89-47.74 286.85-47.74L286.85-47.74L296.51-47.74L296.51-47.74Q297.47-47.74 297.47-46.78L297.47-46.78L297.47-26.88L297.47-26.88Q299.01-29.44 301.60-30.91L301.60-30.91L301.60-30.91Q304.19-32.38 307.20-32.38L307.20-32.38L307.20-32.38Q313.09-32.38 316.42-28.48L316.42-28.48L316.42-28.48Q319.74-24.58 319.74-16.29L319.74-16.29L319.74-16.29Q319.74-8 315.94-3.62L315.94-3.62L315.94-3.62Q312.13 0.77 305.92 0.77L305.92 0.77L305.92 0.77Q302.40 0.77 299.81-0.48L299.81-0.48L299.81-0.48Q297.22-1.73 296.06-3.58L296.06-3.58L295.68-0.96L295.68-0.96Q295.62 0 294.72 0L294.72 0L286.91 0L286.91 0Q285.95 0 285.95-0.96L285.95-0.96L285.95-4.10L285.95-4.10Q285.95-5.06 286.91-5.06L286.91-5.06ZM297.47-19.33L297.47-19.33L297.47-8L297.47-8Q298.24-6.85 300.45-5.76L300.45-5.76L300.45-5.76Q302.66-4.67 304.77-4.67L304.77-4.67L304.77-4.67Q312.51-4.67 312.51-15.62L312.51-15.62L312.51-15.62Q312.51-23.55 308.93-25.60L308.93-25.60L308.93-25.60Q307.39-26.50 304.70-26.50L304.70-26.50L304.70-26.50Q302.02-26.50 299.74-24.54L299.74-24.54L299.74-24.54Q297.47-22.59 297.47-19.33ZM336.90-13.95L336.90-13.95L325.12-13.95L325.12-13.95Q324.42-13.95 324.16-14.21L324.16-14.21L324.16-14.21Q323.90-14.46 323.90-15.17L323.90-15.17L323.90-18.94L323.90-18.94Q323.90-19.65 324.16-19.90L324.16-19.90L324.16-19.90Q324.42-20.16 325.12-20.16L325.12-20.16L336.90-20.16L336.90-20.16Q337.60-20.16 337.86-19.90L337.86-19.90L337.86-19.90Q338.11-19.65 338.11-18.94L338.11-18.94L338.11-15.17L338.11-15.17Q338.11-14.46 337.86-14.21L337.86-14.21L337.86-14.21Q337.60-13.95 336.90-13.95ZM341.63-27.39L341.63-27.39L341.63-30.72L341.63-30.72Q341.63-31.68 342.59-31.68L342.59-31.68L351.36-31.68L351.36-31.68Q352.19-31.68 352.32-30.72L352.32-30.72L352.83-27.01L352.83-27.01Q356.16-32.38 362.82-32.38L362.82-32.38L362.82-32.38Q369.47-32.38 371.58-26.75L371.58-26.75L371.58-26.75Q375.04-32.38 381.63-32.38L381.63-32.38L381.63-32.38Q391.55-32.38 391.55-21.50L391.55-21.50L391.55-5.06L395.20-5.06L395.20-5.06Q396.16-5.06 396.16-4.10L396.16-4.10L396.16-0.96L396.16-0.96Q396.16 0 395.20 0L395.20 0L381.12 0L381.12 0Q380.16 0 380.16-0.96L380.16-0.96L380.16-4.10L380.16-4.10Q380.16-5.06 381.12-5.06L381.12-5.06L384.38-5.06L384.38-18.30L384.38-18.30Q384.38-22.34 383.36-24.19L383.36-24.19L383.36-24.19Q382.34-26.05 379.23-26.05L379.23-26.05L379.23-26.05Q376.13-26.05 374.27-24.38L374.27-24.38L374.27-24.38Q372.42-22.72 372.42-20.48L372.42-20.48L372.42-5.06L375.49-5.06L375.49-5.06Q376.45-5.06 376.45-4.10L376.45-4.10L376.45-0.96L376.45-0.96Q376.45 0 375.49 0L375.49 0L362.37 0L362.37 0Q361.41 0 361.41-0.96L361.41-0.96L361.41-4.10L361.41-4.10Q361.41-5.06 362.37-5.06L362.37-5.06L365.25-5.06L365.25-18.30L365.25-18.30Q365.25-22.34 364.22-24.19L364.22-24.19L364.22-24.19Q363.20-26.05 360.03-26.05L360.03-26.05L360.03-26.05Q356.86-26.05 355.04-24.16L355.04-24.16L355.04-24.16Q353.22-22.27 353.22-19.78L353.22-19.78L353.22-5.06L357.12-5.06L357.12-5.06Q358.08-5.06 358.08-4.10L358.08-4.10L358.08-0.96L358.08-0.96Q358.08 0 357.12 0L357.12 0L342.66 0L342.66 0Q341.70 0 341.70-0.96L341.70-0.96L341.70-4.10L341.70-4.10Q341.70-5.06 342.66-5.06L342.66-5.06L346.05-5.06L346.05-26.43L342.59-26.43L342.59-26.43Q341.63-26.43 341.63-27.39ZM399.42-15.36L399.42-15.36L399.42-15.36Q399.42-20.16 400.90-23.68L400.90-23.68L400.90-23.68Q402.37-27.20 404.74-28.99L404.74-28.99L404.74-28.99Q409.28-32.38 414.59-32.38L414.59-32.38L414.59-32.38Q418.50-32.38 421.18-31.17L421.18-31.17L421.18-31.17Q423.87-29.95 425.38-28.35L425.38-28.35L425.38-28.35Q426.88-26.75 427.94-23.74L427.94-23.74L427.94-23.74Q428.99-20.74 428.99-16.70L428.99-16.70L428.99-16.70Q428.99-8.13 424.67-3.68L424.67-3.68L424.67-3.68Q420.35 0.77 413.63 0.77L413.63 0.77L413.63 0.77Q406.91 0.77 403.17-3.30L403.17-3.30L403.17-3.30Q399.42-7.36 399.42-15.36ZM414.14-4.48L414.14-4.48L414.14-4.48Q417.98-4.48 419.74-7.33L419.74-7.33L419.74-7.33Q421.50-10.18 421.50-15.81L421.50-15.81L421.50-15.81Q421.50-21.44 419.74-24.29L419.74-24.29L419.74-24.29Q417.98-27.14 414.02-27.14L414.02-27.14L414.02-27.14Q406.66-27.14 406.66-16.77L406.66-16.77L406.66-16.77Q406.66-4.48 414.14-4.48ZM462.91-46.78L462.91-5.06L465.66-5.06L465.66-5.06Q466.62-5.06 466.62-4.10L466.62-4.10L466.62-0.96L466.62-0.96Q466.62 0 465.66 0L465.66 0L458.43 0L458.43 0Q457.60 0 457.47-0.96L457.47-0.96L456.96-4.74L456.96-4.74Q453.70 0.77 446.53 0.77L446.53 0.77L446.53 0.77Q440.26 0.77 436.86-3.17L436.86-3.17L436.86-3.17Q433.47-7.10 433.47-15.39L433.47-15.39L433.47-15.39Q433.47-23.68 437.41-28.03L437.41-28.03L437.41-28.03Q441.34-32.38 447.55-32.38L447.55-32.38L447.55-32.38Q450.37-32.38 452.54-31.33L452.54-31.33L452.54-31.33Q454.72-30.27 455.74-28.80L455.74-28.80L455.74-42.43L452.35-42.43L452.35-42.43Q451.39-42.43 451.39-43.39L451.39-43.39L451.39-46.78L451.39-46.78Q451.39-47.74 452.35-47.74L452.35-47.74L461.95-47.74L461.95-47.74Q462.91-47.74 462.91-46.78L462.91-46.78ZM455.74-12.03L455.74-12.03L455.74-23.30L455.74-23.30Q454.91-24.58 452.83-25.66L452.83-25.66L452.83-25.66Q450.75-26.75 448.64-26.75L448.64-26.75L448.64-26.75Q440.70-26.75 440.70-16L440.70-16L440.70-16Q440.70-7.74 444.29-5.70L444.29-5.70L444.29-5.70Q445.82-4.80 448.51-4.80L448.51-4.80L448.51-4.80Q451.20-4.80 453.47-6.78L453.47-6.78L453.47-6.78Q455.74-8.77 455.74-12.03ZM501.18-30.72L501.18-5.06L504-5.06L504-5.06Q504.96-5.06 504.96-4.10L504.96-4.10L504.96-0.96L504.96-0.96Q504.96 0 504 0L504 0L496.83 0L496.83 0Q496.06 0 495.87-0.96L495.87-0.96L495.30-4.54L495.30-4.54Q491.20 0.77 484.54 0.77L484.54 0.77L484.54 0.77Q474.18 0.77 474.18-10.11L474.18-10.11L474.18-26.43L470.78-26.43L470.78-26.43Q469.82-26.43 469.82-27.39L469.82-27.39L469.82-30.72L469.82-30.72Q469.82-31.68 470.78-31.68L470.78-31.68L480.38-31.68L480.38-31.68Q481.34-31.68 481.34-30.72L481.34-30.72L481.34-12.03L481.34-12.03Q481.34-8.19 482.34-6.56L482.34-6.56L482.34-6.56Q483.33-4.93 486.56-4.93L486.56-4.93L486.56-4.93Q489.79-4.93 491.90-6.85L491.90-6.85L491.90-6.85Q494.02-8.77 494.02-11.20L494.02-11.20L494.02-26.43L489.98-26.43L489.98-26.43Q489.02-26.43 489.02-27.39L489.02-27.39L489.02-30.72L489.02-30.72Q489.02-31.68 489.98-31.68L489.98-31.68L500.22-31.68L500.22-31.68Q501.18-31.68 501.18-30.72L501.18-30.72ZM520.06-46.78L520.06-46.78L520.06-5.06L524.10-5.06L524.10-5.06Q525.06-5.06 525.06-4.10L525.06-4.10L525.06-0.96L525.06-0.96Q525.06 0 524.10 0L524.10 0L508.86 0L508.86 0Q507.90 0 507.90-0.96L507.90-0.96L507.90-4.10L507.90-4.10Q507.90-5.06 508.86-5.06L508.86-5.06L512.90-5.06L512.90-42.50L509.44-42.50L509.44-42.50Q508.48-42.50 508.48-43.46L508.48-43.46L508.48-46.78L508.48-46.78Q508.48-47.74 509.44-47.74L509.44-47.74L519.10-47.74L519.10-47.74Q520.06-47.74 520.06-46.78ZM542.66 0.77L542.66 0.77L542.66 0.77Q535.04 0.77 531.49-3.68L531.49-3.68L531.49-3.68Q527.94-8.13 527.94-15.46L527.94-15.46L527.94-15.46Q527.94-22.78 531.71-27.58L531.71-27.58L531.71-27.58Q535.49-32.38 542.59-32.38L542.59-32.38L542.59-32.38Q546.11-32.38 548.64-31.07L548.64-31.07L548.64-31.07Q551.17-29.76 552.51-27.52L552.51-27.52L552.51-27.52Q555.07-23.17 555.07-17.47L555.07-17.47L555.07-17.47Q555.07-14.78 554.82-14.53L554.82-14.53L554.82-14.53Q554.56-14.27 553.86-14.27L553.86-14.27L535.04-14.27L535.04-14.27Q535.36-9.66 537.31-7.14L537.31-7.14L537.31-7.14Q539.26-4.61 544.06-4.61L544.06-4.61L544.06-4.61Q547.58-4.61 551.30-6.27L551.30-6.27L551.30-6.27Q552.19-6.72 552.58-5.76L552.58-5.76L553.79-2.82L553.79-2.82Q554.11-2.05 553.22-1.54L553.22-1.54L553.22-1.54Q548.99 0.77 542.66 0.77ZM535.04-19.01L535.04-19.01L548.35-19.01L548.35-19.01Q548.48-27.01 542.08-27.01L542.08-27.01L542.08-27.01Q538.30-27.01 536.74-24.61L536.74-24.61L536.74-24.61Q535.17-22.21 535.04-19.01ZM559.94-22.53L559.94-22.53Q559.94-26.75 563.20-29.57L563.20-29.57L563.20-29.57Q566.46-32.38 571.46-32.38L571.46-32.38L571.46-32.38Q576.45-32.38 580.10-31.23L580.10-31.23L580.10-31.23Q580.99-30.98 580.99-30.08L580.99-30.08L580.99-23.30L580.99-23.30Q580.99-22.34 580.03-22.34L580.03-22.34L576.32-22.34L576.32-22.34Q575.30-22.34 575.49-23.30L575.49-23.30L575.81-26.56L575.81-26.56Q573.89-27.58 571.58-27.58L571.58-27.58L571.58-27.58Q566.46-27.58 566.46-24L566.46-24L566.46-24Q566.46-22.14 568.13-21.06L568.13-21.06L568.13-21.06Q569.79-19.97 572.16-19.30L572.16-19.30L572.16-19.30Q574.53-18.62 576.93-17.76L576.93-17.76L576.93-17.76Q579.33-16.90 580.99-14.82L580.99-14.82L580.99-14.82Q582.66-12.74 582.66-9.54L582.66-9.54L582.66-9.54Q582.66-4.67 579.26-1.95L579.26-1.95L579.26-1.95Q575.87 0.77 569.73 0.77L569.73 0.77L569.73 0.77Q565.44 0.77 560.70-0.51L560.70-0.51L560.70-0.51Q559.87-0.77 559.87-1.73L559.87-1.73L559.87-8.51L559.87-8.51Q559.87-9.47 560.83-9.47L560.83-9.47L564.54-9.47L564.54-9.47Q565.50-9.47 565.44-8.51L565.44-8.51L565.25-5.18L565.25-5.18Q566.98-3.90 570.18-3.90L570.18-3.90L570.18-3.90Q575.87-3.90 575.87-7.94L575.87-7.94L575.87-7.94Q575.87-9.98 574.24-11.17L574.24-11.17L574.24-11.17Q572.61-12.35 570.27-12.99L570.27-12.99L570.27-12.99Q567.94-13.63 565.57-14.43L565.57-14.43L565.57-14.43Q563.20-15.23 561.57-17.25L561.57-17.25L561.57-17.25Q559.94-19.26 559.94-22.53L559.94-22.53Z" fill="#c04040"></path></g></g><style>text {
  font-size: 64px;
  font-family: Arial Black;
  dominant-baseline: central;
  text-anchor: middle;
}</style></svg>